<mxfile host="app.diagrams.net" modified="2024-06-27T09:32:17.830Z" agent="Mozilla/5.0 (Windows NT 10.0; Win64; x64) AppleWebKit/537.36 (KHTML, like Gecko) Chrome/126.0.0.0 Safari/537.36" etag="4Su0uTjf_TFR6nlwwHyC" version="24.6.3" type="device">
  <diagram name="Page-1" id="Owv5cHfUI78yeMlFK6Gc">
    <mxGraphModel dx="1195" dy="643" grid="1" gridSize="10" guides="1" tooltips="1" connect="1" arrows="1" fold="1" page="1" pageScale="1" pageWidth="850" pageHeight="1100" math="0" shadow="0">
      <root>
        <mxCell id="0" />
        <mxCell id="1" parent="0" />
        <mxCell id="2wjuEzBo8ScL8iPJhUgu-1" value="Neregistrovaný užívateľ" style="shape=umlActor;verticalLabelPosition=bottom;verticalAlign=top;html=1;outlineConnect=0;" parent="1" vertex="1">
          <mxGeometry x="140" y="210" width="30" height="60" as="geometry" />
        </mxCell>
        <mxCell id="2wjuEzBo8ScL8iPJhUgu-2" value="Registrovaný užívateľ" style="shape=umlActor;verticalLabelPosition=bottom;verticalAlign=top;html=1;outlineConnect=0;" parent="1" vertex="1">
          <mxGeometry x="140" y="330" width="30" height="60" as="geometry" />
        </mxCell>
        <mxCell id="2wjuEzBo8ScL8iPJhUgu-3" value="Systém pre autorizáciu užívateľa" style="shape=umlActor;verticalLabelPosition=bottom;verticalAlign=top;html=1;outlineConnect=0;" parent="1" vertex="1">
          <mxGeometry x="660" y="210" width="30" height="60" as="geometry" />
        </mxCell>
        <mxCell id="2wjuEzBo8ScL8iPJhUgu-4" value="Platobná brána" style="shape=umlActor;verticalLabelPosition=bottom;verticalAlign=top;html=1;outlineConnect=0;" parent="1" vertex="1">
          <mxGeometry x="660" y="470" width="30" height="60" as="geometry" />
        </mxCell>
        <mxCell id="bfdVJmYeKeT2yu0ahe1P-7" value="" style="edgeStyle=orthogonalEdgeStyle;rounded=0;orthogonalLoop=1;jettySize=auto;html=1;" edge="1" parent="1">
          <mxGeometry relative="1" as="geometry">
            <mxPoint x="675" y="590" as="sourcePoint" />
            <mxPoint x="675" y="560" as="targetPoint" />
            <Array as="points">
              <mxPoint x="675" y="570" />
              <mxPoint x="675" y="570" />
            </Array>
          </mxGeometry>
        </mxCell>
        <mxCell id="2wjuEzBo8ScL8iPJhUgu-5" value="Paypal" style="shape=umlActor;verticalLabelPosition=bottom;verticalAlign=top;html=1;outlineConnect=0;" parent="1" vertex="1">
          <mxGeometry x="660" y="600" width="30" height="60" as="geometry" />
        </mxCell>
        <mxCell id="2wjuEzBo8ScL8iPJhUgu-7" value="" style="rounded=0;whiteSpace=wrap;html=1;" parent="1" vertex="1">
          <mxGeometry x="220" y="170" width="350" height="640" as="geometry" />
        </mxCell>
        <mxCell id="bfdVJmYeKeT2yu0ahe1P-14" value="" style="edgeStyle=orthogonalEdgeStyle;rounded=0;orthogonalLoop=1;jettySize=auto;html=1;dashed=1;dashPattern=8 8;curved=1;" edge="1" parent="1" source="2wjuEzBo8ScL8iPJhUgu-8" target="2wjuEzBo8ScL8iPJhUgu-9">
          <mxGeometry relative="1" as="geometry">
            <Array as="points">
              <mxPoint x="310" y="720" />
              <mxPoint x="310" y="620" />
            </Array>
          </mxGeometry>
        </mxCell>
        <mxCell id="2wjuEzBo8ScL8iPJhUgu-8" value="Zaplatenie" style="ellipse;whiteSpace=wrap;html=1;" parent="1" vertex="1">
          <mxGeometry x="345" y="680" width="120" height="80" as="geometry" />
        </mxCell>
        <mxCell id="bfdVJmYeKeT2yu0ahe1P-16" style="edgeStyle=orthogonalEdgeStyle;rounded=0;orthogonalLoop=1;jettySize=auto;html=1;exitX=1;exitY=0.5;exitDx=0;exitDy=0;dashed=1;dashPattern=8 8;strokeColor=default;curved=1;entryX=1;entryY=0.5;entryDx=0;entryDy=0;" edge="1" parent="1" source="2wjuEzBo8ScL8iPJhUgu-9" target="2wjuEzBo8ScL8iPJhUgu-12">
          <mxGeometry relative="1" as="geometry">
            <mxPoint x="470" y="520" as="targetPoint" />
            <Array as="points">
              <mxPoint x="510" y="620" />
              <mxPoint x="510" y="420" />
            </Array>
          </mxGeometry>
        </mxCell>
        <mxCell id="2wjuEzBo8ScL8iPJhUgu-9" value="Vytvorenie objednávky" style="ellipse;whiteSpace=wrap;html=1;" parent="1" vertex="1">
          <mxGeometry x="345" y="580" width="120" height="80" as="geometry" />
        </mxCell>
        <mxCell id="2wjuEzBo8ScL8iPJhUgu-10" value="Zobrazenie navrhovaných položiek" style="ellipse;whiteSpace=wrap;html=1;" parent="1" vertex="1">
          <mxGeometry x="345" y="480" width="120" height="80" as="geometry" />
        </mxCell>
        <mxCell id="2wjuEzBo8ScL8iPJhUgu-11" value="Registrácia" style="ellipse;whiteSpace=wrap;html=1;" parent="1" vertex="1">
          <mxGeometry x="345" y="180" width="120" height="80" as="geometry" />
        </mxCell>
        <mxCell id="2wjuEzBo8ScL8iPJhUgu-12" value="Zobrazenie položiek" style="ellipse;whiteSpace=wrap;html=1;" parent="1" vertex="1">
          <mxGeometry x="345" y="380" width="120" height="80" as="geometry" />
        </mxCell>
        <mxCell id="2wjuEzBo8ScL8iPJhUgu-13" value="e-shop" style="text;html=1;align=center;verticalAlign=middle;resizable=0;points=[];autosize=1;strokeColor=none;fillColor=none;" parent="1" vertex="1">
          <mxGeometry x="220" y="170" width="60" height="30" as="geometry" />
        </mxCell>
        <mxCell id="2wjuEzBo8ScL8iPJhUgu-17" value="" style="endArrow=none;html=1;rounded=0;entryX=0;entryY=0.5;entryDx=0;entryDy=0;" parent="1" target="2wjuEzBo8ScL8iPJhUgu-11" edge="1">
          <mxGeometry width="50" height="50" relative="1" as="geometry">
            <mxPoint x="170" y="240" as="sourcePoint" />
            <mxPoint x="280" y="210" as="targetPoint" />
          </mxGeometry>
        </mxCell>
        <mxCell id="2wjuEzBo8ScL8iPJhUgu-18" value="" style="endArrow=none;html=1;rounded=0;entryX=0;entryY=0.5;entryDx=0;entryDy=0;" parent="1" target="2wjuEzBo8ScL8iPJhUgu-12" edge="1">
          <mxGeometry width="50" height="50" relative="1" as="geometry">
            <mxPoint x="170" y="240" as="sourcePoint" />
            <mxPoint x="450" y="370" as="targetPoint" />
          </mxGeometry>
        </mxCell>
        <mxCell id="2wjuEzBo8ScL8iPJhUgu-19" value="" style="endArrow=none;html=1;rounded=0;entryX=0;entryY=0.5;entryDx=0;entryDy=0;" parent="1" target="2wjuEzBo8ScL8iPJhUgu-10" edge="1">
          <mxGeometry width="50" height="50" relative="1" as="geometry">
            <mxPoint x="170" y="360" as="sourcePoint" />
            <mxPoint x="450" y="370" as="targetPoint" />
          </mxGeometry>
        </mxCell>
        <mxCell id="2wjuEzBo8ScL8iPJhUgu-20" value="" style="endArrow=none;html=1;rounded=0;entryX=0;entryY=0.5;entryDx=0;entryDy=0;" parent="1" target="2wjuEzBo8ScL8iPJhUgu-12" edge="1">
          <mxGeometry width="50" height="50" relative="1" as="geometry">
            <mxPoint x="170" y="360" as="sourcePoint" />
            <mxPoint x="450" y="370" as="targetPoint" />
          </mxGeometry>
        </mxCell>
        <mxCell id="2wjuEzBo8ScL8iPJhUgu-21" value="" style="endArrow=none;html=1;rounded=0;exitX=1;exitY=0.5;exitDx=0;exitDy=0;" parent="1" source="2wjuEzBo8ScL8iPJhUgu-11" target="2wjuEzBo8ScL8iPJhUgu-3" edge="1">
          <mxGeometry width="50" height="50" relative="1" as="geometry">
            <mxPoint x="400" y="420" as="sourcePoint" />
            <mxPoint x="650" y="240" as="targetPoint" />
            <Array as="points">
              <mxPoint x="560" y="230" />
            </Array>
          </mxGeometry>
        </mxCell>
        <mxCell id="bfdVJmYeKeT2yu0ahe1P-1" value="" style="endArrow=none;html=1;rounded=0;exitX=0;exitY=0.5;exitDx=0;exitDy=0;" edge="1" parent="1" source="2wjuEzBo8ScL8iPJhUgu-9">
          <mxGeometry width="50" height="50" relative="1" as="geometry">
            <mxPoint x="450" y="420" as="sourcePoint" />
            <mxPoint x="170" y="360" as="targetPoint" />
          </mxGeometry>
        </mxCell>
        <mxCell id="bfdVJmYeKeT2yu0ahe1P-2" value="" style="endArrow=none;html=1;rounded=0;exitX=0;exitY=0.5;exitDx=0;exitDy=0;" edge="1" parent="1" source="2wjuEzBo8ScL8iPJhUgu-9">
          <mxGeometry width="50" height="50" relative="1" as="geometry">
            <mxPoint x="340" y="520" as="sourcePoint" />
            <mxPoint x="170" y="240" as="targetPoint" />
          </mxGeometry>
        </mxCell>
        <mxCell id="bfdVJmYeKeT2yu0ahe1P-5" value="" style="endArrow=none;html=1;rounded=0;exitX=1;exitY=0.5;exitDx=0;exitDy=0;" edge="1" parent="1" source="2wjuEzBo8ScL8iPJhUgu-8" target="2wjuEzBo8ScL8iPJhUgu-4">
          <mxGeometry width="50" height="50" relative="1" as="geometry">
            <mxPoint x="450" y="420" as="sourcePoint" />
            <mxPoint x="500" y="370" as="targetPoint" />
          </mxGeometry>
        </mxCell>
        <mxCell id="bfdVJmYeKeT2yu0ahe1P-8" value="Prihlásenie" style="ellipse;whiteSpace=wrap;html=1;" vertex="1" parent="1">
          <mxGeometry x="345" y="280" width="120" height="80" as="geometry" />
        </mxCell>
        <mxCell id="bfdVJmYeKeT2yu0ahe1P-10" value="" style="endArrow=none;html=1;rounded=0;entryX=1;entryY=0.5;entryDx=0;entryDy=0;" edge="1" parent="1" target="bfdVJmYeKeT2yu0ahe1P-8">
          <mxGeometry width="50" height="50" relative="1" as="geometry">
            <mxPoint x="660" y="240" as="sourcePoint" />
            <mxPoint x="230" y="520" as="targetPoint" />
          </mxGeometry>
        </mxCell>
        <mxCell id="bfdVJmYeKeT2yu0ahe1P-11" value="" style="endArrow=none;html=1;rounded=0;entryX=0;entryY=0.5;entryDx=0;entryDy=0;" edge="1" parent="1" target="bfdVJmYeKeT2yu0ahe1P-8">
          <mxGeometry width="50" height="50" relative="1" as="geometry">
            <mxPoint x="170" y="360" as="sourcePoint" />
            <mxPoint x="390" y="310" as="targetPoint" />
          </mxGeometry>
        </mxCell>
        <mxCell id="bfdVJmYeKeT2yu0ahe1P-15" value="&amp;lt;&amp;lt;Includes&amp;gt;&amp;gt;" style="text;html=1;align=center;verticalAlign=middle;resizable=0;points=[];autosize=1;strokeColor=none;fillColor=none;" vertex="1" parent="1">
          <mxGeometry x="220" y="650" width="100" height="30" as="geometry" />
        </mxCell>
        <mxCell id="bfdVJmYeKeT2yu0ahe1P-17" value="&amp;lt;&amp;lt;Includes&amp;gt;&amp;gt;" style="text;html=1;align=center;verticalAlign=middle;resizable=0;points=[];autosize=1;strokeColor=none;fillColor=none;" vertex="1" parent="1">
          <mxGeometry x="420" y="460" width="100" height="30" as="geometry" />
        </mxCell>
      </root>
    </mxGraphModel>
  </diagram>
</mxfile>
